<svg width="587" height="423" viewBox="0 0 587 423" fill="none" xmlns="http://www.w3.org/2000/svg">
<path d="M528.66 351.74C525.29 353.29 519.08 351.42 513.91 350.36C511.42 349.84 508.93 349.31 506.44 348.79C504.22 348.31 502.01 347.83 499.79 347.35C493.7 347.58 487.61 347.81 481.54 348.03C475.19 348.31 468.88 348.66 462.63 349.16C411.55 353.3 359.66 355.31 308.57 356.77C241.92 358.68 175.23 360.53 108.45 361.68C102.29 361.78 96.51 361.89 91.21 361.98C75.85 362.18 61.03 361.33 47.51 358.9C32.43 356.19 31.17 352.76 45.3 349.32C69.29 343.48 94.28 339.44 123.89 340.6C142 341.31 159.29 343.14 176.78 344.73C199.89 344.32 222.99 343.46 245.96 342.38C328.72 338.47 411.39 336.87 494.1 334.34C495.14 334.32 496.17 334.29 497.2 334.27C498.5 334.26 499.8 334.24 501.08 334.23L502.47 334.58L503.61 334.88C504.19 335.04 504.77 335.2 505.34 335.37C506.49 335.7 507.62 336.04 508.72 336.4C510.94 337.11 513.08 337.88 515.09 338.72C519.12 340.39 522.68 342.31 525.47 344.55C528.61 347.08 532.34 350.06 528.66 351.75V351.74Z" fill="black"/>
<path d="M437.09 113.83C437.35 107.95 441.14 95.9801 443.95 86.1201C447.92 72.3601 451.92 58.5301 455.9 44.7201C457.89 37.8201 459.89 30.9201 461.88 24.0401C462.87 20.6001 463.85 17.1601 464.83 13.7301L465.32 11.9901L465.56 11.0801L466.02 9.31006C465 9.38006 463.98 9.44006 462.96 9.51006C460.18 9.64006 457.41 9.78006 454.64 9.91006C355.39 14.7801 254.66 18.3501 155.48 21.5601C140.18 22.0601 124.87 22.5501 109.56 23.0501C119.19 55.0201 128.83 87.0001 138.46 118.98L137.75 117.4C138.91 119.26 139.38 121.71 138.93 123.91C138.5 126.11 137.27 128.12 135.45 129.49C134.54 130.18 133.49 130.68 132.42 130.99C132.15 131.06 131.88 131.12 131.61 131.18L131.13 131.26L130.32 131.4L127.07 131.95L125.44 132.22L124.63 132.36L124.22 132.43C124.09 132.43 124 132.25 123.89 132.17L121.39 129.71L117.92 126.3C114.69 123.38 111.38 120.54 107.8 118.23C106.06 116.97 104.18 116 102.36 114.91C100.47 114.01 98.62 112.98 96.66 112.29C92.81 110.74 88.82 109.63 84.79 109.21C76.76 108.28 68.59 109.68 61.35 113.46C57.73 115.33 54.34 117.71 51.24 120.48C50.49 121.2 49.67 121.85 48.96 122.63L46.79 124.91L44.76 127.34C44.07 128.14 43.49 129.04 42.85 129.88C37.88 136.78 34.22 144.76 31.81 153.15L31.34 154.72C31.2 155.25 31.08 155.78 30.95 156.31L30.18 159.5L29.58 162.74L29.28 164.36L29.01 166.09L26.85 179.95C24.02 198.45 21.45 217.01 19 235.59C17.47 247.43 16.08 258.54 14.83 268.74C14.64 270.32 14.44 271.91 14.25 273.48C14.23 273.74 14.12 273.93 14.19 274.03L14.4 274.12L14.51 274.17L14.57 274.2C14.57 274.2 14.56 274.2 14.63 274.22L14.96 274.32C16.71 274.86 18.46 275.4 20.2 275.94C27.16 278.11 34.03 280.3 40.77 282.5C54.24 286.9 67.22 291.37 79.5 295.88C106.9 305.95 108.45 308.65 81.45 302.69C69.98 300.16 58.42 297.53 46.68 294.74C40.81 293.34 34.89 291.91 28.92 290.42C25.93 289.67 22.93 288.91 19.91 288.15C16.79 287.34 13.65 286.53 10.49 285.71C7.58999 284.9 4.67 284.09 1.75 283.28C1.39 283.17 1 283.08 0.660004 282.96L0.769989 281.84L0.98999 279.58C1.13999 278.09 1.28999 276.59 1.42999 275.1C1.78999 271.42 2.15001 267.71 2.51001 263.98C3.16001 257.52 3.87 250.96 4.66 244.31C6.25 231 8.13001 217.29 10.42 203.08C11.83 194.39 13.28 185.81 14.83 177.32C15.59 173.07 16.4 168.85 17.19 164.64C17.56 162.57 18.07 160.34 18.54 158.16C18.76 157.06 19.08 155.99 19.37 154.91L20.27 151.69L21.32 148.51L21.85 146.93L22.46 145.37L23.68 142.26C24.12 141.24 24.6 140.23 25.06 139.22C25.94 137.18 27.07 135.25 28.09 133.28L29.81 130.42L30.68 129L31.63 127.62C36.6 120.26 42.89 113.71 50.38 108.84C53.64 106.46 57.27 104.6 60.99 103.01L63.83 101.93C64.79 101.61 65.78 101.35 66.75 101.06C67.24 100.92 67.72 100.77 68.22 100.65L69.71 100.35C70.71 100.17 71.7 99.9001 72.71 99.7901C76.74 99.1801 80.82 99.1701 84.86 99.4701L87.87 99.8801C88.37 99.9601 88.88 100.01 89.37 100.1L90.85 100.43C91.83 100.66 92.83 100.85 93.8 101.11L96.69 102C97.17 102.15 97.66 102.29 98.13 102.46L99.53 103.01L102.33 104.12L105.03 105.42C105.93 105.86 106.84 106.27 107.69 106.79C109.4 107.8 111.18 108.72 112.79 109.88L115.26 111.54C116.08 112.1 116.84 112.73 117.63 113.32L119.98 115.13L122.21 117.07L124.43 119.02L126.33 120.88C126.72 121.26 127.1 121.64 127.49 121.99L129.22 121.69L129.65 121.61L129.76 121.59H129.81L129.84 121.58H129.85C129.78 121.14 129.96 122.17 129.94 122.07C129.94 122.09 129.96 122.15 129.96 122.17C129.99 122.26 129.98 122.2 129.94 122.18C129.9 122.15 129.93 122.18 129.97 122.18C130.01 122.18 130.01 122.15 129.85 122.25L129.32 122.56L129.09 121.82C124.91 108.19 120.74 94.6101 116.58 81.0601C110.35 60.7501 104.12 40.4501 97.89 20.1601C97.44 18.7101 97.45 17.4401 97.52 16.3801C97.53 16.1001 97.57 15.8601 97.6 15.6201C97.65 15.3501 97.61 15.1701 97.75 14.8801C98.09 14.2201 98.58 14.1701 99.01 13.9201C99.92 13.4901 101.05 13.0501 102.49 12.9101C103.95 12.8101 105.48 12.7901 106.97 12.7301L119.51 12.2901L143.01 11.4601C158.68 10.9201 174.34 10.3901 190 9.85006C221.33 8.82006 252.64 7.78006 283.96 6.75006C348.42 4.69006 412.87 2.62006 477.33 0.560059C472.68 16.5101 468.02 32.4601 463.36 48.4101C456.91 70.5401 449.9 92.3601 443.39 106.19C440.36 112.62 436.78 120.27 437.06 113.86L437.09 113.83Z" fill="black"/>
<path d="M541.66 351.48C535.3 350.33 522.32 345.19 511.64 341.22C495.86 335.32 479.98 329.38 464.14 323.45C453.68 323.66 443.22 323.87 432.82 324.08C422.19 324.32 411.61 324.58 401.11 324.89C357.24 326.19 313.12 327.32 268.96 328.33C246.88 328.81 224.79 329.28 202.71 329.76C180.83 330.18 158.96 330.61 137.14 331.03C115.07 336.04 93.08 341.04 71.16 346.02L44.84 351.98L39.04 353.29H39.03H39.02C39.02 353.3 39.04 353.29 39.04 353.29L63.18 352.88C99.17 352.27 135.16 351.67 171.16 351.06C243.16 349.93 315.19 348.8 387.26 347.67C400.55 347.48 413.02 347.29 424.48 347.12C457.64 346.67 489.57 346.78 518.61 347.73C551.02 348.79 553.55 350.55 522.91 352.65C470.85 356.22 416.75 358.88 352.9 358.96C313.86 359 276.64 358.45 239 358.01C189.12 358.75 139.23 359.71 89.63 360.8C72.72 361.16 55.8 361.52 38.89 361.88L29.28 362.07C26.19 362.09 22.41 362.37 20.55 361.83L19.12 361.51C18.66 361.4 18.32 361.3 17.91 361.2L15.75 360.63C15.41 360.54 15.08 360.46 14.74 360.31C14.4 360.16 14.04 359.88 13.7 359.52C13.02 358.76 12.52 357.61 12.39 356.44C12.28 355.27 12.49 354.03 13 353.18C13.5 352.29 14.11 352.01 14.71 351.68L16.64 350.59C17.01 350.39 17.28 350.21 17.73 349.99L19.02 349.33L20.63 348.66C21.33 348.46 21.97 348.24 22.8 348.07L27.53 346.99L37.03 344.83C70.05 337.3 103.07 329.77 136.07 322.25C245.84 320.37 355.55 318.49 465.32 316.61L470.65 318.61C494.63 327.63 518.29 337.09 533.31 344.86C540.29 348.47 548.6 352.76 541.66 351.5V351.48Z" fill="black"/>
<path d="M564.85 420.9C563.68 417.74 564.48 411.05 564.84 405.57C565.44 396.34 566.15 387.07 566.82 377.82C567.13 373.19 567.45 368.58 567.76 363.98C567.9 361.68 568.03 359.38 568.17 357.09L568.35 353.66L568.43 351.95L568.45 351.52C568.45 351.4 568.45 351.41 568.45 351.34V351.07L568.41 350.02L567.48 349.72L567.05 349.58L565.58 348.99L559.64 346.57C555.68 344.95 551.72 343.32 547.76 341.69C539.85 338.4 531.93 335.1 524.01 331.79L512.15 326.78L506.22 324.26L496.75 320.17L491 317.68C489.16 316.84 486.81 316.04 486.03 315.1L484.32 313.73C484.1 313.51 484.02 313.3 483.87 313.09C483.72 312.87 483.63 312.68 483.53 312.49C483.44 312.3 483.33 312.1 483.25 311.91L483.06 311.39C482.91 311.02 482.87 310.75 482.79 310.45C482.71 310.13 482.68 309.89 482.64 309.63C482.64 309.55 482.62 309.53 482.62 309.41C482.62 309.26 482.62 309.09 482.63 308.92C482.65 308.57 482.71 308.2 482.77 307.96C482.83 307.71 482.86 307.65 482.9 307.51C482.93 307.39 483 307.24 483.05 307.11C483.16 306.83 483.25 306.57 483.43 306.25L483.67 305.79L484.01 305.28C484.11 305.12 484.25 304.94 484.41 304.76C484.58 304.58 484.68 304.4 484.9 304.22C485.64 303.49 486.68 302.66 488.65 302.16C509.18 297.59 529.67 293.03 550.04 288.49L567.34 284.68L574.7 283.06L574.66 282.91L574.33 281.58L573.05 276.29L570.59 265.72C569 258.67 567.43 251.63 565.92 244.57C562.88 230.47 559.97 216.35 557.11 202.22L552.9 181.01L550.82 170.4C550.47 168.64 550.08 167.01 549.71 165.3L549.15 162.77C548.97 161.92 548.79 161.08 548.54 160.26C547.6 156.97 546.77 153.62 545.56 150.47C544.53 147.21 543.12 144.19 541.81 141.1C538.93 135.11 535.37 129.58 530.97 125.07C527.04 121.08 522.71 118.24 518.38 116.45C512.12 113.82 505.22 112.94 498.33 113.22C491.43 113.48 484.57 114.85 478.05 116.61C470.77 118.64 466.8 120.07 465.93 119.38C465.04 118.79 467.29 115.89 473.81 111.88C479.37 108.53 485.45 105.74 492.12 103.86C495.47 103.01 498.94 102.23 502.57 101.97C504.37 101.75 506.22 101.79 508.09 101.76C509.02 101.74 509.96 101.87 510.9 101.92C511.84 102.02 512.8 102.02 513.74 102.21C521.32 103.28 529.1 106.36 535.6 111.45C542.09 116.55 547.23 123.3 551.03 130.71C555.64 139.83 558.25 149.2 560.04 158.44C561.62 167.81 562.53 176.62 563.71 185.68C568.32 209.25 573.29 232.77 578.74 256.01L582.14 270.2L583.9 277.27L586.22 286.29C586.34 287.54 586.51 288.86 586.22 289.76L586.17 289.92L586.14 290V290.04C585.76 289.82 586.95 290.56 585.29 289.55L585.27 289.57L584.97 289.82L584.36 290.32L583.15 291.31L582.54 291.81L582.24 292.06C582.09 292.11 581.9 292.14 581.73 292.18L579.65 292.65L575.99 293.48L565.1 295.95L543.31 300.85C530.53 303.7 517.75 306.54 504.97 309.39L502.35 309.97C501.92 310.08 501.47 310.14 501.05 310.29C500.87 310.4 500.84 310.79 501.11 310.82L501.73 311.09L506.66 313.25L527.97 322.63L577.63 344.5L574.61 383.95C573.68 396.26 572.13 408.45 569.14 416.33C567.75 420 566.11 424.35 564.84 420.9H564.85Z" fill="black"/>
<path d="M413.58 112.29C413.27 111.58 412.61 111.73 412.07 111.7C410.25 111.61 408.4 111.74 406.6 111.47C401.34 110.68 396.02 110.58 390.78 110.64C381.33 110.75 371.88 110.89 362.42 111.63C352.24 112.43 341.97 112.19 331.76 112.88C326.62 113.23 321.47 113.57 316.32 113.6C307.83 113.66 299.36 114.07 290.87 114.23C283.94 114.37 277 113.89 270.07 113.7C264.22 113.54 258.33 113.81 252.46 113.87C251.05 113.88 249.63 113.78 248.22 113.87C243.01 114.23 237.81 114.71 232.6 115.05C226.51 115.45 220.45 114.17 214.79 114.46C209.47 114.19 204.63 114.77 199.76 115.2C190.96 115.96 182.15 116.45 173.34 117.11C171.77 117.23 170.26 117.67 168.91 118.6C167.4 119.64 167.32 120.74 168.81 121.66C171.33 123.22 173.93 124.21 176.93 123.49C180.57 122.62 183.83 120.43 187.65 120.09C189.39 119.94 191.09 120.76 192.67 120.28C196.17 119.22 199.87 120.03 203.32 118.72C203.64 118.6 204.02 118.66 204.37 118.69C208 118.91 211.57 119.75 215.27 118.83C217.39 118.3 219.73 118.49 221.99 118.58C225.45 118.73 228.91 119.75 232.36 119.22C235.9 118.67 239.43 119 242.96 118.9C243.52 118.88 244.09 118.8 244.65 118.74C247.8 118.39 250.96 118.35 254.13 118.45C257.6 118.57 261.09 118.81 264.54 118.48C270.73 117.89 276.89 117.63 283.1 118.32C287.94 118.85 292.86 119.02 297.67 118.78C302.15 118.56 306.58 118.61 311.05 118.71C320.95 118.93 330.85 119.42 340.74 118.66C341.99 118.56 343.24 118.35 344.5 118.47C351.57 119.11 358.58 117.63 365.64 117.86C365.71 117.86 365.77 117.8 365.84 117.78C371.94 115.77 378.27 115.56 384.5 115.84C393 116.22 401.46 115.88 409.94 115.84C411.16 115.84 412.36 115.51 413.14 114.29C413.5 113.72 413.93 113.06 413.59 112.28L413.58 112.29Z" fill="black"/>
<path d="M122.08 287.22C123.03 287.03 122.85 286.59 122.9 286.23C123.07 285.03 122.95 283.81 123.37 282.62C123.97 280.9 124.34 279.16 124.58 277.42C124.84 275.68 124.96 273.94 125.02 272.22L125.17 267.55C125.23 265.99 125.28 264.43 125.31 262.87C125.35 259.75 125.3 256.62 125.1 253.47C124.62 246.69 125.62 239.94 125.45 233.14C125.37 229.71 125.29 226.28 125.67 222.88C126.25 217.28 126.46 211.64 126.97 206.04C127.43 201.46 128.66 196.96 129.59 192.44C130.36 188.62 130.57 184.71 131.09 180.84C131.22 179.91 131.5 178.99 131.51 178.05C131.55 174.57 131.47 171.08 131.57 167.6C131.68 163.53 134.02 159.78 134.26 156.01C135.19 152.57 134.97 149.29 134.97 146.03C134.97 140.13 135.34 134.26 135.56 128.38C135.6 127.33 135.2 126.26 134.14 125.21C132.96 124.03 131.52 123.77 130.13 124.57C127.76 125.93 126.14 127.45 126.72 129.56C127.41 132.11 129.94 134.65 129.93 137.21C129.93 138.38 128.64 139.34 129.09 140.47C130.08 142.96 128.6 145.24 129.93 147.74C130.05 147.97 129.93 148.21 129.86 148.43C129.16 150.77 127.65 152.97 128.47 155.57C128.94 157.05 128.43 158.56 128.06 160.03C127.49 162.28 125.76 164.38 126.1 166.74C126.44 169.16 125.64 171.43 125.41 173.77C125.37 174.14 125.43 174.53 125.45 174.91C125.59 177.04 125.33 179.13 124.87 181.2C124.36 183.47 123.7 185.73 123.81 188.05C123.99 192.23 123.74 196.32 122.27 200.32C121.12 203.43 120.45 206.67 120.37 209.89C120.28 212.88 119.82 215.81 119.34 218.76C118.23 225.28 116.84 231.81 117.16 238.47C117.2 239.31 117.4 240.16 117.16 240.99C115.81 245.63 117.37 250.43 116.66 255.11C116.66 255.15 116.73 255.2 116.75 255.25C119.07 259.47 119.06 263.67 118.37 267.8C117.94 270.61 117.76 273.44 117.64 276.26C117.54 279.09 117.56 281.91 117.46 284.74C117.43 285.55 117.83 286.36 119.43 286.9C120.17 287.15 121.05 287.45 122.09 287.24L122.08 287.22Z" fill="black"/>
<path d="M473.43 303.48C474.37 303.14 474.12 302.72 474.12 302.35C474.12 301.1 473.81 299.87 474.05 298.6C474.75 294.91 474.54 291.29 474.14 287.74C473.39 281.35 472.66 274.94 471.12 268.61C469.46 261.79 469.24 254.76 467.73 247.88C466.98 244.42 466.24 240.96 465.89 237.45C465.34 231.66 464.29 225.94 463.57 220.17C462.94 215.46 463.19 210.64 462.96 205.87C462.78 201.84 462.03 197.86 461.5 193.86C461.38 192.9 461.41 191.9 461.18 190.96C460.32 187.46 459.22 184.01 458.34 180.52C457.34 176.45 458.44 172.03 457.56 168.22C457.44 164.52 456.11 161.35 455.06 158.13C453.09 152.33 451.45 146.46 449.43 140.69C449.08 139.66 448.3 138.78 446.9 138.16C445.34 137.47 443.87 137.78 442.83 139.07C441.06 141.26 440.06 143.28 441.38 145.06C442.18 146.14 443.41 147.05 444.57 148.01C445.7 148.98 446.74 149.99 447.18 151.23C447.58 152.36 446.66 153.73 447.48 154.66C449.32 156.73 448.6 159.43 450.69 161.44C450.88 161.62 450.83 161.9 450.84 162.14C450.89 164.66 450.17 167.25 451.73 169.55C452.63 170.86 452.59 172.5 452.67 174.05C452.8 176.43 451.72 178.99 452.7 181.21C453.72 183.5 453.57 185.96 453.99 188.33C454.05 188.71 454.21 189.07 454.34 189.44C455.04 191.52 455.33 193.66 455.42 195.83C455.53 198.21 455.44 200.62 456.11 202.91C457.34 207.02 458.09 211.17 457.54 215.51C457.13 218.89 457.2 222.26 457.8 225.5C458.37 228.51 458.56 231.54 458.67 234.6C458.93 241.37 458.8 248.19 460.38 254.83C460.58 255.67 460.93 256.49 460.85 257.37C460.36 262.28 462.77 266.85 462.86 271.7C462.86 271.75 462.94 271.78 462.98 271.82C466.06 275.69 466.72 279.97 466.71 284.26C466.71 290.11 467.72 295.83 468.38 301.6C468.47 302.43 469 303.19 470.7 303.51C471.49 303.66 472.43 303.83 473.45 303.47L473.43 303.48Z" fill="black"/>
<path d="M59.46 123.39C58.9 122.97 58.62 123.36 58.3 123.56C57.22 124.22 56.36 125.16 55.25 125.79C52.07 127.73 49.63 130.67 47.78 133.75C44.45 139.33 42.32 145.39 41.34 151.53L40.94 154L40.54 156.39C40.26 157.98 39.94 159.57 39.62 161.16C39.02 164.34 38.42 167.53 38.08 170.76C37.75 174.01 37.41 177.25 36.87 180.46C35.93 185.74 35.43 191.07 34.72 196.37C34.16 200.7 33.06 204.96 32.23 209.24C31.53 212.86 31.24 216.55 30.73 220.2C30.61 221.08 30.37 221.94 30.33 222.83C30.17 226.1 30.1 229.38 29.89 232.65C29.62 236.47 27.81 240.02 27.42 243.54C26.59 246.77 26.53 249.83 26.33 252.88C25.95 258.4 25.24 263.88 24.56 269.37C24.44 270.35 24.64 271.35 25.3 272.36C26.04 273.49 27.04 273.76 28.1 273.03C29.9 271.79 31.19 270.38 30.97 268.39C30.71 265.98 29.12 263.56 29.31 261.16C29.4 260.06 30.38 259.16 30.15 258.1C29.64 255.76 30.83 253.62 30.04 251.27C29.97 251.05 30.07 250.83 30.14 250.62C30.8 248.42 31.99 246.34 31.54 243.91C31.29 242.52 31.73 241.1 32.07 239.72C32.57 237.6 33.89 235.6 33.76 233.38C33.62 231.11 34.27 228.96 34.53 226.75C34.57 226.4 34.55 226.04 34.54 225.68C34.53 223.68 34.78 221.71 35.19 219.75C35.63 217.61 36.18 215.47 36.2 213.29C36.23 209.37 36.56 205.51 37.8 201.74C38.75 198.81 39.41 195.79 39.67 192.78C39.91 189.98 40.46 187.26 41.02 184.51C42.36 178.45 43.96 172.47 44.63 166.31C44.71 165.53 44.68 164.73 44.96 163.98C45.74 161.89 46.08 159.72 46.34 157.52C46.6 155.31 46.85 153.16 47.57 151.12C47.58 151.08 47.54 151.03 47.53 150.98C46.81 146.89 48.03 142.98 50.06 139.68C52.78 135.19 55.59 130.74 59.62 127.45C60.19 126.98 60.6 126.33 60.32 125.1C60.19 124.53 60.06 123.85 59.46 123.39Z" fill="black"/>
<path d="M519.85 133.04C519.59 133.71 519.98 133.83 520.21 134.05C521 134.75 521.86 135.41 522.45 136.31C524.11 138.97 525.82 141.44 527.44 144.02C530.36 148.67 532.45 153.94 534.57 159.34C535.14 160.8 535.61 162.3 536.02 163.82C536.43 165.37 536.8 166.97 537.18 168.55C537.93 171.72 538.65 174.9 539.57 178.03C540.51 181.18 541.39 184.35 542.02 187.57C543.01 192.88 544.29 198.14 545.29 203.45C546.12 207.79 546.34 212.24 546.81 216.64C547.21 220.35 548.01 224.03 548.6 227.73C548.74 228.62 548.77 229.54 548.99 230.41C549.81 233.65 550.74 236.86 551.54 240.1C552.48 243.89 551.84 247.92 552.65 251.46C552.89 254.87 553.92 257.84 554.77 260.85C556.33 266.29 557.64 271.78 559.1 277.23C559.36 278.2 559.92 279.08 560.92 279.78C562.04 280.56 563.08 280.43 563.81 279.34C565.05 277.49 565.73 275.68 564.77 273.9C563.61 271.75 561.21 270.05 560.54 267.7C560.23 266.63 560.85 265.42 560.24 264.5C558.9 262.46 559.31 260 557.75 258.03C557.61 257.85 557.63 257.6 557.62 257.37C557.49 255.04 557.93 252.66 556.72 250.46C556.02 249.21 555.98 247.7 555.86 246.26C555.67 244.05 556.33 241.71 555.51 239.61C554.67 237.46 554.66 235.18 554.24 232.96C554.17 232.61 554.04 232.26 553.93 231.92C553.31 229.98 552.98 227.99 552.79 225.97C552.58 223.76 552.49 221.51 551.86 219.39C550.72 215.57 549.9 211.72 549.94 207.68C549.97 204.54 549.63 201.4 548.9 198.4C548.22 195.61 547.81 192.8 547.41 189.97C546.55 183.69 545.84 177.36 543.94 171.28C543.7 170.51 543.34 169.77 543.3 168.96C543.16 166.67 542.54 164.52 541.85 162.34C541.15 160.13 540.3 157.98 539.79 155.72C539.78 155.68 539.71 155.65 539.68 155.62C536.73 152.33 535.19 148.69 533.65 144.94C531.53 139.85 527.98 135.39 523.75 131.78C523.13 131.28 522.3 131.02 521.22 131.65C520.72 131.94 520.14 132.3 519.87 133.02L519.85 133.04Z" fill="black"/>
<path d="M283.59 24.9401C283.36 24.2801 282.95 24.4401 282.61 24.4301C281.47 24.3901 280.33 24.5601 279.2 24.3601C275.89 23.7501 272.58 23.8201 269.33 23.9601C266.4 24.1001 263.46 24.2501 260.53 24.4601C257.6 24.6501 254.66 24.9101 251.73 25.3101C245.42 26.1401 239.02 25.9601 232.66 26.6001C229.46 26.9201 226.25 27.2201 223.04 27.2401C217.75 27.2601 212.46 27.5901 207.16 27.6901C202.83 27.7801 198.49 27.2901 194.16 27.0901C190.5 26.9301 186.82 27.1601 183.14 27.2301C182.25 27.2401 181.36 27.1501 180.48 27.2401C177.22 27.5701 173.98 28.1001 170.72 28.4401C166.92 28.8601 163.08 27.7801 159.53 28.1201C156.18 27.9901 153.17 28.6301 150.14 29.1301C144.67 30.0901 139.19 30.7901 133.73 31.7301C132.76 31.8901 131.85 32.3601 131.08 33.2701C130.22 34.2901 130.26 35.3201 131.26 36.1201C132.95 37.5001 134.64 38.3301 136.45 37.5601C138.64 36.6401 140.52 34.4301 142.88 34.0301C143.95 33.8401 145.06 34.5601 146.02 34.0701C148.14 32.9901 150.48 33.6101 152.57 32.3401C152.76 32.2201 153 32.2701 153.22 32.2901C155.5 32.4201 157.76 33.1301 160.03 32.1901C161.33 31.6701 162.8 31.8101 164.21 31.8701C166.38 31.9701 168.56 32.8501 170.7 32.3401C172.89 31.8101 175.1 32.0901 177.3 31.9701C177.65 31.9501 178 31.8601 178.35 31.8001C180.31 31.4701 182.28 31.4301 184.26 31.5201C186.43 31.6201 188.61 31.8501 190.75 31.5501C194.61 31.0001 198.45 30.8001 202.33 31.4701C205.35 31.9901 208.43 32.1801 211.43 31.9801C214.22 31.8001 216.99 31.8701 219.79 31.9801C225.97 32.2401 232.18 32.7201 238.35 31.9801C239.13 31.8901 239.91 31.6901 240.7 31.8001C245.14 32.3601 249.49 30.9601 253.91 31.0801C253.95 31.0801 253.99 31.0301 254.03 31.0001C257.79 29.0501 261.72 28.7901 265.62 28.9201C270.94 29.1401 276.22 28.6101 281.51 28.3301C282.27 28.2901 283 27.9601 283.42 26.8001C283.61 26.2601 283.84 25.6301 283.59 24.9101V24.9401Z" fill="black"/>
<path d="M68.48 343.67C70.05 339.33 75.62 338.81 79.98 337.59C84.54 336.32 89.14 335.15 93.75 334C98.77 332.73 103.8 331.46 108.8 330.19L112.27 330.08L114.43 329.97C115.87 329.88 117.31 329.79 118.74 329.7C121.61 329.5 124.47 329.24 127.31 328.91C171.09 323.77 215.55 322.29 259.32 321.72C316.42 320.98 373.56 320.35 430.77 320.92C436.05 320.93 441 320.97 445.54 321.06C458.7 321.3 471.39 323.33 482.96 328C495.87 333.22 496.92 339.14 484.81 344.49C464.23 353.57 442.8 359.55 417.44 356.44C401.93 354.54 387.13 350.75 372.16 347.35C352.36 347.18 332.56 347.77 312.89 348.75C279.11 350.44 245.35 351.24 211.6 351.74C178.25 352.14 144.91 352.53 111.56 352.93L102.96 355.01C93.08 357.4 82.86 358.1 74.88 353.27C71.17 351.02 66.77 348.4 68.48 343.67Z" fill="black"/>
<path d="M123.16 315.49C122.92 314.99 122.57 315.17 122.28 315.21C121.79 315.27 121.26 315.38 120.81 315.47C120.36 315.56 119.9 315.63 119.43 315.63C116.69 315.62 114.07 316.14 111.5 316.76C106.89 317.89 102.28 319.05 97.77 320.66C92.92 322.38 87.85 323.37 82.97 325.02C80.51 325.85 78.05 326.68 75.54 327.29C71.4 328.29 67.32 329.54 63.19 330.62C59.82 331.5 56.34 331.94 52.91 332.58C50.02 333.12 47.18 333.99 44.31 334.69C43.62 334.86 42.91 334.94 42.23 335.17C39.74 336.02 37.28 336.96 34.79 337.79C31.88 338.76 28.68 338.52 25.96 339.36C23.31 339.76 21.04 340.73 18.73 341.58C14.56 343.13 10.33 344.46 6.12 345.96C5.4 346.21 4.64002 346.77 4.20002 347.61C3.70002 348.55 4.05002 349.3 4.95002 349.78C5.33002 349.99 5.67999 350.17 6.01999 350.32C6.18999 350.39 6.35 350.46 6.5 350.51C6.67 350.56 6.86001 350.6 7.04001 350.63C7.76001 350.74 8.44999 350.63 9.10999 350.2C10.7 349.15 11.9 347.18 13.71 346.51C14.53 346.2 15.52 346.61 16.2 346.08C17.72 344.92 19.68 345.09 21.13 343.75C21.26 343.63 21.46 343.63 21.64 343.61C23.46 343.36 25.36 343.58 27 342.49C27.94 341.87 29.12 341.74 30.25 341.56C31.97 341.28 33.85 341.64 35.44 340.87C37.08 340.08 38.86 339.92 40.57 339.45C40.84 339.37 41.1 339.25 41.37 339.14C42.85 338.53 44.39 338.15 45.96 337.87C47.68 337.57 49.43 337.35 51.06 336.72C53.98 335.59 56.95 334.71 60.12 334.51C62.58 334.35 65.02 333.92 67.34 333.2C69.49 332.53 71.67 332.07 73.88 331.64C78.77 330.69 83.7 329.93 88.41 328.26C89.01 328.05 89.58 327.75 90.22 327.7C93.79 327.37 96.96 325.5 100.46 324.88C100.49 324.88 100.51 324.82 100.54 324.8C103.17 322.64 106.23 321.78 109.33 321.3C113.56 320.64 117.65 319.45 121.79 318.52C122.37 318.4 122.88 318.05 123.14 317.07C123.26 316.61 123.42 316.07 123.16 315.53V315.49Z" fill="black"/>
</svg>
