<svg xmlns="http://www.w3.org/2000/svg" width="61" height="19" viewBox="0 0 61 19" fill="none">
  <path d="M4.23159 0.354655C4.49728 0.354655 4.7605 0.391899 5.01875 0.461427C5.27699 0.533437 5.51039 0.650144 5.71897 0.811546C5.92755 0.972949 6.09641 1.18153 6.22553 1.43729C6.35466 1.69305 6.41922 2.00344 6.41922 2.37094C6.41922 2.73844 6.34473 3.04635 6.19822 3.29963C6.05172 3.55042 5.84314 3.76397 5.57745 3.9353C5.84314 4.10912 6.04924 4.32018 6.19822 4.57098C6.34473 4.82177 6.41922 5.13216 6.41922 5.49966C6.41922 5.86717 6.35466 6.17756 6.22553 6.43332C6.09641 6.68908 5.92755 6.89766 5.71897 7.05906C5.51039 7.22046 5.27699 7.33717 5.01875 7.40918C4.7605 7.48119 4.49728 7.51595 4.23159 7.51595H0.864502V0.352173H4.23159V0.354655ZM5.4508 2.37343C5.4508 2.00593 5.33658 1.7303 5.11062 1.54158C4.88466 1.35535 4.58669 1.26099 4.22168 1.26099H1.83786V3.48338H4.22168C4.58918 3.48338 4.88466 3.38902 5.11062 3.20279C5.33658 3.01655 5.4508 2.73844 5.4508 2.37094V2.37343ZM5.4508 5.50215C5.4508 5.13465 5.33658 4.85902 5.11062 4.67031C4.88466 4.48407 4.58669 4.38971 4.22168 4.38971H1.83786V6.6121H4.22168C4.58918 6.6121 4.88466 6.51774 5.11062 6.33151C5.33658 6.14528 5.4508 5.86717 5.4508 5.49966V5.50215Z" fill="black"/>
  <path d="M4.23154 7.58775H0.794922V0.284912H4.23154C4.5022 0.284912 4.77286 0.322159 5.03855 0.39417C5.30425 0.468663 5.5476 0.590333 5.76363 0.756702C5.97966 0.923071 6.15596 1.14158 6.29005 1.40479C6.42414 1.668 6.49117 1.99329 6.49117 2.36824C6.49117 2.74319 6.41421 3.06848 6.26026 3.33169C6.12368 3.56511 5.93745 3.76624 5.70156 3.93261C5.93497 4.09897 6.12368 4.30259 6.26026 4.53352C6.41421 4.79425 6.49117 5.11953 6.49117 5.49696C6.49117 5.8744 6.42414 6.1972 6.29005 6.46041C6.15596 6.72362 5.97966 6.94214 5.76363 7.10851C5.5476 7.27488 5.30425 7.39655 5.03855 7.47104C4.77534 7.54305 4.50468 7.5803 4.23154 7.5803V7.58775ZM0.93396 7.45117H4.23154C4.48979 7.45117 4.75051 7.41641 5.0013 7.34689C5.24961 7.27736 5.47808 7.16313 5.67922 7.00918C5.87786 6.85523 6.04422 6.65161 6.1659 6.40578C6.29005 6.16244 6.35213 5.85702 6.35213 5.50442C6.35213 5.15181 6.28013 4.85136 6.14107 4.61049C5.99953 4.36963 5.79839 4.16353 5.54263 3.99717L5.45324 3.94005L5.54263 3.88294C5.79839 3.71657 5.99953 3.51048 6.14107 3.26962C6.28261 3.02875 6.35213 2.72829 6.35213 2.37569C6.35213 2.02309 6.29005 1.71767 6.1659 1.47432C6.04174 1.22849 5.87786 1.02736 5.67922 0.870927C5.47808 0.714491 5.24961 0.600267 5.0013 0.533223C4.75051 0.463696 4.48979 0.428933 4.23154 0.428933H0.93396V7.45614V7.45117ZM4.22163 6.68141H1.76831V4.31997H4.22163C4.60403 4.31997 4.91687 4.4193 5.15525 4.61546C5.3986 4.81411 5.52029 5.11208 5.52029 5.49945C5.52029 5.88682 5.3986 6.18479 5.15525 6.38344C4.91687 6.5796 4.60403 6.67893 4.22163 6.67893V6.68141ZM1.90487 6.54484H4.22163C4.57175 6.54484 4.8548 6.45544 5.06835 6.27914C5.27941 6.10533 5.38371 5.84957 5.38371 5.50193C5.38371 5.1543 5.2819 4.89854 5.06835 4.72472C4.8548 4.54842 4.57175 4.45902 4.22163 4.45902H1.90487V6.54484ZM4.22163 3.55269H1.76831V1.19125H4.22163C4.60403 1.19125 4.91687 1.29057 5.15525 1.48674C5.3986 1.68539 5.52029 1.98336 5.52029 2.37073C5.52029 2.75809 5.3986 3.05606 5.15525 3.25471C4.91687 3.45088 4.60403 3.5502 4.22163 3.5502V3.55269ZM1.90487 3.41612H4.22163C4.57175 3.41612 4.8548 3.32672 5.06835 3.15042C5.27941 2.9766 5.38371 2.72085 5.38371 2.37321C5.38371 2.02558 5.2819 1.76981 5.06835 1.596C4.8548 1.41969 4.57175 1.3303 4.22163 1.3303H1.90487V3.41612Z" fill="black"/>
  <path d="M9.01151 1.26046V3.48285H12.8206V4.38918H9.01151V6.61157H12.8951V7.51791H8.03815V0.354126H12.8951V1.26046H9.01151Z" fill="black"/>
  <path d="M12.9647 7.58775H7.97113V0.284912H12.9647V1.32782H9.08107V3.41363H12.8902V4.45654H9.08107V6.54236H12.9647V7.58526V7.58775ZM8.10768 7.45117H12.8256V6.68141H8.94201V4.31997H12.7511V3.5502H8.94201V1.18877H12.8256V0.418999H8.10768V7.44621V7.45117Z" fill="black"/>
  <path d="M19.036 0.354736H20.0714L17.3748 4.85414V7.51852H16.4039V4.85414L13.7072 0.354736H14.775L16.9005 3.9478L19.0385 0.354736H19.036Z" fill="black"/>
  <path d="M17.4418 7.58795H16.3318V4.87391L13.5805 0.287598H14.8096L14.8295 0.322361L16.8955 3.8161L18.9937 0.287598H20.1906L17.4393 4.87391V7.58795H17.4418ZM16.4709 7.45138H17.3052V4.83666L19.9497 0.42417H19.0732L16.8979 4.08428L14.7327 0.42417H13.8263L16.4709 4.83666V7.45138Z" fill="black"/>
  <path d="M23.9995 0.214722C24.5185 0.214722 25.0003 0.309078 25.4522 0.500278C25.9016 0.691478 26.2915 0.952207 26.6242 1.28246C26.9545 1.61272 27.2127 2.00753 27.4014 2.46442C27.5877 2.92131 27.682 3.41297 27.682 3.93691C27.682 4.46084 27.5877 4.96243 27.4014 5.41436C27.2152 5.86877 26.9545 6.25862 26.6242 6.59135C26.294 6.92161 25.9016 7.18233 25.4522 7.37353C25.0027 7.56473 24.5185 7.6591 23.9995 7.6591C23.4806 7.6591 22.9989 7.56473 22.5494 7.37353C22.1 7.18233 21.7101 6.92161 21.3774 6.59135C21.0471 6.2611 20.7864 5.86877 20.6002 5.41436C20.4139 4.95995 20.3196 4.46829 20.3196 3.93691C20.3196 3.40552 20.4139 2.92131 20.6002 2.46442C20.7864 2.00753 21.0471 1.61272 21.3774 1.28246C21.7076 0.952207 22.0975 0.691478 22.5494 0.500278C22.9989 0.309078 23.4831 0.214722 23.9995 0.214722ZM23.9995 1.12106C23.6122 1.12106 23.2521 1.19059 22.9268 1.33212C22.5991 1.47118 22.3135 1.66734 22.0702 1.92062C21.8244 2.17141 21.6356 2.47187 21.4991 2.81702C21.3625 3.16218 21.293 3.53713 21.293 3.93939C21.293 4.34166 21.36 4.7166 21.4991 5.06176C21.6356 5.40691 21.8268 5.70488 22.0702 5.95816C22.3135 6.20895 22.6016 6.40512 22.9268 6.54666C23.2546 6.68571 23.6122 6.75773 23.9995 6.75773C24.3869 6.75773 24.747 6.6882 25.0723 6.54666C25.4 6.40761 25.6856 6.21144 25.9289 5.95816C26.1723 5.70737 26.3635 5.40691 26.5001 5.06176C26.6366 4.7166 26.7061 4.34166 26.7061 3.93939C26.7061 3.53713 26.6366 3.16218 26.5001 2.81702C26.3635 2.47187 26.1723 2.1739 25.9289 1.92062C25.6831 1.66982 25.3975 1.47366 25.0723 1.33212C24.7445 1.19307 24.3869 1.12106 23.9995 1.12106Z" fill="black"/>
  <path d="M23.9996 7.72894C23.4756 7.72894 22.9765 7.63209 22.5221 7.43841C22.0652 7.24473 21.6654 6.97655 21.3302 6.64133C20.995 6.30611 20.7268 5.90136 20.5381 5.44199C20.3494 4.98261 20.2526 4.47605 20.2526 3.93722C20.2526 3.39838 20.3494 2.90176 20.5381 2.43742C20.7268 1.97556 20.995 1.56833 21.3302 1.23311C21.6654 0.897888 22.0677 0.629714 22.5221 0.436032C22.979 0.242349 23.4756 0.145508 23.9996 0.145508C24.5235 0.145508 25.0226 0.242349 25.477 0.436032C25.9315 0.629714 26.3337 0.897888 26.6689 1.23311C27.0041 1.56833 27.2698 1.97556 27.461 2.43742C27.6498 2.90176 27.7466 3.40583 27.7466 3.93722C27.7466 4.4686 27.6498 4.98261 27.461 5.44199C27.2723 5.90136 27.0041 6.30363 26.6689 6.64133C26.3337 6.97655 25.9315 7.24473 25.477 7.43841C25.0202 7.63209 24.5235 7.72894 23.9996 7.72894ZM23.9996 0.284562C23.493 0.284562 23.0138 0.378921 22.5743 0.565154C22.1348 0.751388 21.7474 1.00963 21.4246 1.33244C21.1018 1.65524 20.846 2.04509 20.6623 2.49205C20.4785 2.93901 20.3867 3.4257 20.3867 3.9397C20.3867 4.45371 20.4785 4.95033 20.6623 5.39232C20.846 5.83432 21.1018 6.22417 21.4246 6.54697C21.7474 6.86978 22.1348 7.12802 22.5743 7.31425C23.0138 7.50049 23.493 7.59485 23.9996 7.59485C24.5061 7.59485 24.9854 7.50049 25.4249 7.31425C25.8644 7.12802 26.2493 6.86978 26.5746 6.54697C26.8974 6.22417 27.1531 5.8368 27.3369 5.39232C27.5206 4.95033 27.6125 4.46116 27.6125 3.9397C27.6125 3.41825 27.5206 2.93901 27.3369 2.49205C27.1531 2.04509 26.8974 1.65524 26.5746 1.33244C26.2518 1.00963 25.8644 0.751388 25.4249 0.565154C24.9854 0.378921 24.5061 0.284562 23.9996 0.284562ZM23.9996 6.82259C23.6048 6.82259 23.2323 6.75059 22.8996 6.60656C22.5644 6.46254 22.2689 6.26141 22.0205 6.00317C21.7697 5.74741 21.5736 5.43702 21.4345 5.08442C21.2955 4.7343 21.2235 4.34693 21.2235 3.93722C21.2235 3.5275 21.2955 3.14014 21.4345 2.79002C21.5736 2.43742 21.7697 2.12951 22.0205 1.87127C22.2713 1.61303 22.5668 1.41189 22.8996 1.26787C23.2348 1.12385 23.6048 1.05184 23.9996 1.05184C24.3944 1.05184 24.7669 1.12385 25.0996 1.26787C25.4323 1.41189 25.7303 1.61303 25.9786 1.87127C26.2294 2.12951 26.4256 2.43742 26.5646 2.79002C26.7037 3.14262 26.7757 3.5275 26.7757 3.93722C26.7757 4.34693 26.7037 4.73182 26.5646 5.08442C26.4256 5.43702 26.2269 5.74493 25.9786 6.00317C25.7278 6.25893 25.4323 6.46254 25.0996 6.60656C24.7644 6.75059 24.3944 6.82259 23.9996 6.82259ZM23.9996 1.1909C23.6221 1.1909 23.2695 1.26042 22.9542 1.39699C22.6364 1.53357 22.3558 1.72477 22.1174 1.97059C21.879 2.21394 21.6928 2.50943 21.5612 2.84465C21.4296 3.17987 21.36 3.54985 21.36 3.94219C21.36 4.33452 21.4271 4.7045 21.5612 5.03972C21.6953 5.37494 21.8815 5.66795 22.1174 5.91378C22.3533 6.15712 22.6364 6.35081 22.9542 6.48738C23.272 6.62395 23.6221 6.69348 23.9996 6.69348C24.377 6.69348 24.7296 6.62395 25.0475 6.48738C25.3653 6.35081 25.6459 6.15961 25.8843 5.91378C26.1202 5.67043 26.3089 5.37494 26.4405 5.03972C26.5721 4.7045 26.6416 4.33452 26.6416 3.94219C26.6416 3.54985 26.5746 3.18235 26.4405 2.84465C26.3064 2.50943 26.1202 2.21642 25.8843 1.97059C25.6459 1.72725 25.3653 1.53357 25.0475 1.39699C24.7296 1.26042 24.377 1.1909 23.9996 1.1909Z" fill="black"/>
  <path d="M35.6205 0.354126V7.51791H34.5304L30.1602 1.73474V7.51791H29.1893V0.354126H30.2794L34.6496 6.1373V0.354126H35.6205Z" fill="black"/>
  <path d="M35.69 7.58775H34.4981L34.4783 7.56043L30.2322 1.94115V7.58775H29.1222V0.284912H30.3141L30.334 0.312227L34.5801 5.93151V0.284912H35.69V7.58775ZM34.5652 7.45117H35.551V0.423966H34.7167V6.34371L30.2446 0.423966H29.2588V7.45117H30.0931V1.53144L34.5652 7.45117Z" fill="black"/>
  <path d="M39.9683 0.354655C40.5941 0.354655 41.1503 0.449011 41.6345 0.640211C42.1212 0.831411 42.5309 1.08717 42.8637 1.41246C43.1989 1.73526 43.4522 2.11518 43.6285 2.54973C43.8048 2.98427 43.8916 3.44613 43.8916 3.9353C43.8916 4.42448 43.8023 4.88634 43.6285 5.32088C43.4522 5.75543 43.1964 6.13534 42.8637 6.45814C42.5284 6.78095 42.1187 7.0392 41.6345 7.23039C41.1478 7.42159 40.5941 7.51595 39.9683 7.51595H37.5622V0.352173H39.9683V0.354655ZM42.9257 3.93778C42.9257 3.54297 42.8587 3.18044 42.7271 2.85267C42.593 2.52489 42.4043 2.24182 42.156 2.00592C41.9076 1.76754 41.6047 1.58628 41.2496 1.45467C40.8921 1.32555 40.4898 1.26099 40.0354 1.26099H38.5356V6.6121H40.0354C40.4898 6.6121 40.8921 6.54754 41.2496 6.41842C41.6047 6.2893 41.9076 6.10554 42.156 5.86716C42.4043 5.62879 42.5955 5.34819 42.7271 5.02042C42.8612 4.69265 42.9257 4.3326 42.9257 3.9353V3.93778Z" fill="black"/>
  <path d="M39.9684 7.58775H37.4927V0.284912H39.9684C40.5991 0.284912 41.1702 0.381753 41.6619 0.575436C42.1535 0.769119 42.5757 1.03233 42.9158 1.36258C43.256 1.69284 43.5192 2.08269 43.698 2.52468C43.8768 2.96668 43.9687 3.44095 43.9687 3.93757C43.9687 4.43419 43.8793 4.90847 43.698 5.35046C43.5192 5.79246 43.256 6.1823 42.9158 6.51256C42.5757 6.84033 42.1535 7.10602 41.6619 7.29971C41.1702 7.49339 40.6016 7.59023 39.9684 7.59023V7.58775ZM37.6318 7.45117H39.9684C40.5817 7.45117 41.1355 7.35682 41.6097 7.17059C42.084 6.98435 42.4912 6.72859 42.8165 6.41323C43.1418 6.09788 43.3951 5.72293 43.5664 5.29832C43.7378 4.87371 43.8247 4.41433 43.8247 3.93757C43.8247 3.46081 43.7378 3.00144 43.5664 2.57682C43.3951 2.15221 43.1418 1.77726 42.8165 1.46191C42.4887 1.14655 42.084 0.890792 41.6097 0.704559C41.133 0.518325 40.5817 0.423966 39.9684 0.423966H37.6318V7.45117ZM40.033 6.68141H38.4636V1.19125H40.033C40.4923 1.19125 40.9095 1.25829 41.2695 1.3899C41.6321 1.5215 41.9449 1.7127 42.2007 1.95605C42.454 2.19939 42.6526 2.4924 42.7892 2.82762C42.9258 3.16284 42.9928 3.53531 42.9928 3.93757C42.9928 4.33983 42.9233 4.71478 42.7892 5.04752C42.6526 5.38274 42.454 5.67575 42.2007 5.9191C41.9474 6.16244 41.6346 6.35116 41.2695 6.48525C40.907 6.61685 40.4898 6.68389 40.033 6.68389V6.68141ZM38.6027 6.54484H40.033C40.475 6.54484 40.8772 6.48028 41.2248 6.35364C41.57 6.227 41.868 6.04822 42.1063 5.81729C42.3472 5.58884 42.5334 5.31073 42.6626 4.99289C42.7917 4.67505 42.8563 4.31997 42.8563 3.93509C42.8563 3.5502 42.7917 3.19512 42.6626 2.87728C42.5334 2.55944 42.3472 2.28382 42.1063 2.05289C41.8655 1.82196 41.57 1.64317 41.2248 1.51653C40.8772 1.3899 40.4774 1.32534 40.033 1.32534H38.6027V6.53987V6.54484Z" fill="black"/>
  <path d="M1.83541 12.5333V14.7557H5.64449V15.662H1.83541V18.7907H0.864502V11.627H5.72149V12.5333H1.83789H1.83541Z" fill="black"/>
  <path d="M1.9049 18.8606H0.794922V11.5577H5.78849V12.6006H1.9049V14.6865H5.71398V15.7294H1.9049V18.8581V18.8606ZM0.933991 18.724H1.76831V15.5953H5.5774V14.8255H1.76831V12.4641H5.65191V11.6943H0.933991V18.7215V18.724Z" fill="black"/>
  <path d="M13.0044 13.7302C13.0044 14.3708 12.8132 14.8699 12.4332 15.23C12.0508 15.59 11.5567 15.7911 10.9434 15.8333L13.1981 18.7907H11.9888L9.73411 15.8333H8.20205V18.7907H7.23114V11.627H10.7174C11.0551 11.627 11.3655 11.6741 11.6461 11.766C11.9267 11.8604 12.1676 11.9945 12.3687 12.1708C12.5698 12.3471 12.7263 12.5656 12.838 12.8288C12.9497 13.092 13.0044 13.3924 13.0044 13.7302ZM12.0335 13.7302C12.0335 13.3428 11.9118 13.0448 11.666 12.8387C11.4201 12.6326 11.1048 12.5308 10.7174 12.5308H8.20205V14.927H10.7174C11.1048 14.927 11.4226 14.8252 11.666 14.6191C11.9118 14.413 12.0335 14.1175 12.0335 13.7277V13.7302Z" fill="black"/>
  <path d="M13.3371 18.8606H11.9565L11.9366 18.8333L9.70184 15.9032H8.2716V18.8606H7.16162V11.5577H10.715C11.0576 11.5577 11.3779 11.6049 11.6635 11.7018C11.9515 11.7986 12.2023 11.9377 12.4109 12.1189C12.6195 12.3002 12.7834 12.5311 12.8976 12.8018C13.0118 13.0724 13.0714 13.3828 13.0714 13.7305C13.0714 14.3885 12.8728 14.9099 12.478 15.2799C12.113 15.6251 11.6412 15.8287 11.0725 15.8908L13.3371 18.8581V18.8606ZM12.0236 18.724H13.059L10.8118 15.7765L10.9385 15.7666C11.5319 15.7244 12.0186 15.5282 12.3861 15.1806C12.7511 14.8354 12.9373 14.3488 12.9373 13.7305C12.9373 13.4027 12.8827 13.1097 12.7759 12.8564C12.6692 12.6056 12.5177 12.3921 12.324 12.2232C12.1303 12.0544 11.8945 11.9228 11.6238 11.8309C11.3507 11.739 11.0452 11.6943 10.7175 11.6943H7.30069V18.7215H8.13501V15.7641H9.76889L9.78877 15.7915L12.0236 18.7215V18.724ZM10.7175 14.9993H8.13501V12.4666H10.7175C11.1197 12.4666 11.4549 12.5758 11.7107 12.7894C11.9689 13.0079 12.103 13.3232 12.103 13.7329C12.103 14.1427 11.9714 14.458 11.7107 14.6765C11.4549 14.8901 11.1197 14.9993 10.7175 14.9993ZM8.2716 14.8628H10.7175C11.0874 14.8628 11.3929 14.7659 11.6238 14.5722C11.8547 14.3786 11.9664 14.1054 11.9664 13.7354C11.9664 13.3654 11.8547 13.0898 11.6238 12.8986C11.3929 12.7049 11.0874 12.6081 10.7175 12.6081H8.2716V14.8652V14.8628Z" fill="black"/>
  <path d="M17.7421 11.4856C18.2611 11.4856 18.7428 11.58 19.1947 11.7712C19.6442 11.9624 20.034 12.2231 20.3668 12.5533C20.697 12.8836 20.9553 13.2784 21.144 13.7353C21.3302 14.1922 21.4246 14.6839 21.4246 15.2078C21.4246 15.7317 21.3302 16.2333 21.144 16.6852C20.9577 17.1396 20.697 17.5295 20.3668 17.8622C20.0365 18.1925 19.6442 18.4532 19.1947 18.6444C18.7453 18.8356 18.2611 18.93 17.7421 18.93C17.2231 18.93 16.7414 18.8356 16.292 18.6444C15.8425 18.4532 15.4527 18.1925 15.1199 17.8622C14.7897 17.532 14.529 17.1396 14.3427 16.6852C14.1565 16.2308 14.0621 15.7392 14.0621 15.2078C14.0621 14.6764 14.1565 14.1922 14.3427 13.7353C14.529 13.2784 14.7897 12.8836 15.1199 12.5533C15.4502 12.2231 15.84 11.9624 16.292 11.7712C16.7414 11.58 17.2256 11.4856 17.7421 11.4856ZM17.7421 12.3919C17.3547 12.3919 16.9947 12.4615 16.6694 12.603C16.3416 12.7421 16.0561 12.9382 15.8127 13.1915C15.5669 13.4423 15.3782 13.7427 15.2416 14.0879C15.105 14.4331 15.0355 14.808 15.0355 15.2103C15.0355 15.6125 15.1026 15.9875 15.2416 16.3326C15.3782 16.6778 15.5694 16.9758 15.8127 17.229C16.0561 17.4798 16.3441 17.676 16.6694 17.8175C16.9972 17.9566 17.3547 18.0286 17.7421 18.0286C18.1295 18.0286 18.4895 17.9591 18.8148 17.8175C19.1426 17.6785 19.4281 17.4823 19.6715 17.229C19.9148 16.9782 20.106 16.6778 20.2426 16.3326C20.3792 15.9875 20.4487 15.6125 20.4487 15.2103C20.4487 14.808 20.3792 14.4331 20.2426 14.0879C20.106 13.7427 19.9148 13.4448 19.6715 13.1915C19.4256 12.9407 19.1401 12.7445 18.8148 12.603C18.487 12.4639 18.1295 12.3919 17.7421 12.3919Z" fill="black"/>
  <path d="M17.7421 18.9999C17.2182 18.9999 16.7191 18.9031 16.2647 18.7094C15.8078 18.5157 15.408 18.2475 15.0728 17.9123C14.7376 17.5771 14.4694 17.1724 14.2807 16.713C14.092 16.2536 13.9951 15.7471 13.9951 15.2082C13.9951 14.6694 14.092 14.1728 14.2807 13.7084C14.4694 13.2466 14.7376 12.8393 15.0728 12.5041C15.408 12.1689 15.8103 11.9007 16.2647 11.707C16.7216 11.5133 17.2182 11.4165 17.7421 11.4165C18.2661 11.4165 18.7652 11.5133 19.2196 11.707C19.674 11.9007 20.0763 12.1689 20.4115 12.5041C20.7467 12.8393 21.0124 13.2466 21.2036 13.7084C21.3923 14.1728 21.4892 14.6768 21.4892 15.2082C21.4892 15.7396 21.3923 16.2536 21.2036 16.713C21.0149 17.1724 20.7467 17.5746 20.4115 17.9123C20.0763 18.2475 19.674 18.5157 19.2196 18.7094C18.7627 18.9031 18.2661 18.9999 17.7421 18.9999ZM17.7421 11.5556C17.2356 11.5556 16.7563 11.6499 16.3168 11.8362C15.8773 12.0224 15.4899 12.2806 15.1671 12.6034C14.8443 12.9262 14.5886 13.3161 14.4048 13.763C14.2211 14.21 14.1292 14.6967 14.1292 15.2107C14.1292 15.7247 14.2211 16.2213 14.4048 16.6633C14.5886 17.1053 14.8443 17.4952 15.1671 17.818C15.4899 18.1408 15.8773 18.399 16.3168 18.5853C16.7563 18.7715 17.2356 18.8658 17.7421 18.8658C18.2487 18.8658 18.7279 18.7715 19.1674 18.5853C19.6069 18.399 19.9918 18.1408 20.3171 17.818C20.6399 17.4952 20.8957 17.1078 21.0794 16.6633C21.2632 16.2213 21.3551 15.7322 21.3551 15.2107C21.3551 14.6892 21.2632 14.21 21.0794 13.763C20.8957 13.3161 20.6399 12.9262 20.3171 12.6034C19.9943 12.2806 19.6069 12.0224 19.1674 11.8362C18.7279 11.6499 18.2487 11.5556 17.7421 11.5556ZM17.7421 18.0936C17.3473 18.0936 16.9749 18.0216 16.6421 17.8776C16.3069 17.7335 16.0114 17.5324 15.7631 17.2742C15.5123 17.0184 15.3161 16.708 15.1771 16.3554C15.038 16.0053 14.966 15.6179 14.966 15.2082C14.966 14.7985 15.038 14.4111 15.1771 14.061C15.3161 13.7084 15.5123 13.4005 15.7631 13.1423C16.0139 12.884 16.3094 12.6829 16.6421 12.5389C16.9773 12.3949 17.3473 12.3228 17.7421 12.3228C18.1369 12.3228 18.5094 12.3949 18.8422 12.5389C19.1749 12.6829 19.4729 12.884 19.7212 13.1423C19.972 13.4005 20.1681 13.7084 20.3072 14.061C20.4463 14.4136 20.5183 14.7985 20.5183 15.2082C20.5183 15.6179 20.4463 16.0028 20.3072 16.3554C20.1681 16.708 19.9695 17.0159 19.7212 17.2742C19.4704 17.5299 19.1749 17.7335 18.8422 17.8776C18.5069 18.0216 18.1369 18.0936 17.7421 18.0936ZM17.7421 12.4619C17.3647 12.4619 17.0121 12.5314 16.6967 12.668C16.3789 12.8046 16.0983 12.9958 15.8599 13.2416C15.6216 13.4849 15.4353 13.7804 15.3037 14.1157C15.1721 14.4509 15.1026 14.8209 15.1026 15.2132C15.1026 15.6055 15.1696 15.9755 15.3037 16.3107C15.4378 16.6459 15.624 16.9389 15.8599 17.1848C16.0958 17.4281 16.3789 17.6218 16.6967 17.7584C17.0146 17.8949 17.3647 17.9645 17.7421 17.9645C18.1196 17.9645 18.4722 17.8949 18.79 17.7584C19.1079 17.6218 19.3885 17.4306 19.6268 17.1848C19.8627 16.9414 20.0514 16.6459 20.183 16.3107C20.3147 15.9755 20.3842 15.6055 20.3842 15.2132C20.3842 14.8209 20.3171 14.4534 20.183 14.1157C20.049 13.7804 19.8627 13.4874 19.6268 13.2416C19.3885 12.9982 19.1079 12.8046 18.79 12.668C18.4722 12.5314 18.1196 12.4619 17.7421 12.4619Z" fill="black"/>
  <path d="M29.3632 11.627V18.7907H28.2731L23.9028 13.0076V18.7907H22.9319V11.627H24.022L28.3922 17.4101V11.627H29.3632Z" fill="black"/>
  <path d="M29.4327 18.8606H28.2408L28.2209 18.8333L23.9748 13.214V18.8606H22.8648V11.5577H24.0567L24.0766 11.5851L28.3227 17.2043V11.5577H29.4327V18.8606ZM28.3078 18.724H29.2936V11.6968H28.4593V17.6165L23.9872 11.6968H23.0014V18.724H23.8357V12.8043L28.3078 18.724Z" fill="black"/>
  <path d="M36.5915 11.6276V12.5339H34.1108V18.7913H33.1399V12.5339H30.6593V11.6276H36.5939H36.5915Z" fill="black"/>
  <path d="M34.1804 18.8607H33.0704V12.6032H30.5898V11.5603H36.661V12.6032H34.1804V18.8607ZM33.2095 18.7241H34.0438V12.4666H36.5244V11.6969H30.7264V12.4666H33.207V18.7241H33.2095Z" fill="black"/>
  <path d="M38.8584 18.7907H37.8875V11.627H38.8584V18.7907Z" fill="black"/>
  <path d="M38.9281 18.8606H37.8181V11.5577H38.9281V18.8606ZM37.9572 18.724H38.7915V11.6968H37.9572V18.724Z" fill="black"/>
  <path d="M41.7712 12.5333V14.7557H45.5803V15.662H41.7712V17.8844H45.6548V18.7907H40.7979V11.627H45.6548V12.5333H41.7712Z" fill="black"/>
  <path d="M45.7244 18.8606H40.7308V11.5577H45.7244V12.6006H41.8408V14.6865H45.6499V15.7294H41.8408V17.8152H45.7244V18.8581V18.8606ZM40.8674 18.724H45.5853V17.9542H41.7017V15.5928H45.5108V14.823H41.7017V12.4616H45.5853V11.6918H40.8674V18.719V18.724Z" fill="black"/>
  <path d="M53.1562 13.7302C53.1562 14.3708 52.965 14.8699 52.5851 15.23C52.2027 15.59 51.7085 15.7911 51.0952 15.8333L53.3499 18.7907H52.1406L49.8859 15.8333H48.3538V18.7907H47.3829V11.627H50.8692C51.2069 11.627 51.5173 11.6741 51.7979 11.766C52.0785 11.8604 52.3194 11.9945 52.5205 12.1708C52.7216 12.3471 52.8781 12.5656 52.9898 12.8288C53.1016 13.092 53.1562 13.3924 53.1562 13.7302ZM52.1853 13.7302C52.1853 13.3428 52.0636 13.0448 51.8178 12.8387C51.572 12.6326 51.2566 12.5308 50.8692 12.5308H48.3538V14.927H50.8692C51.2566 14.927 51.5745 14.8252 51.8178 14.6191C52.0636 14.413 52.1853 14.1175 52.1853 13.7277V13.7302Z" fill="black"/>
  <path d="M53.489 18.8606H52.1084L52.0885 18.8333L49.8537 15.9032H48.4234V18.8606H47.3135V11.5577H50.8668C51.2095 11.5577 51.5298 11.6049 51.8154 11.7018C52.1034 11.7986 52.3542 11.9377 52.5628 12.1189C52.7714 12.3002 52.9352 12.5311 53.0495 12.8018C53.1637 13.0724 53.2233 13.3828 53.2233 13.7305C53.2233 14.3885 53.0246 14.9099 52.6298 15.2799C52.2648 15.6251 51.793 15.8287 51.2244 15.8908L53.489 18.8581V18.8606ZM52.1754 18.724H53.2109L50.9636 15.7765L51.0903 15.7666C51.6837 15.7244 52.1704 15.5282 52.5379 15.1806C52.9029 14.8354 53.0892 14.3488 53.0892 13.7305C53.0892 13.4027 53.0346 13.1097 52.9278 12.8564C52.821 12.6056 52.6695 12.3921 52.4758 12.2232C52.2822 12.0544 52.0463 11.9228 51.7756 11.8309C51.5025 11.739 51.1971 11.6943 50.8693 11.6943H47.4525V18.7215H48.2868V15.7641H49.9207L49.9406 15.7915L52.1754 18.7215V18.724ZM50.8693 14.9993H48.2868V12.4666H50.8693C51.2715 12.4666 51.6068 12.5758 51.8625 12.7894C52.1208 13.0079 52.2548 13.3232 52.2548 13.7329C52.2548 14.1427 52.1233 14.458 51.8625 14.6765C51.6068 14.8901 51.2715 14.9993 50.8693 14.9993ZM48.4234 14.8628H50.8693C51.2393 14.8628 51.5447 14.7659 51.7756 14.5722C52.0066 14.3786 52.1183 14.1054 52.1183 13.7354C52.1183 13.3654 52.0066 13.0898 51.7756 12.8986C51.5447 12.7049 51.2393 12.6081 50.8693 12.6081H48.4234V14.8652V14.8628Z" fill="black"/>
  <path d="M55.0559 17.0106C55.2223 17.321 55.4855 17.5668 55.848 17.7506C56.2106 17.9343 56.6302 18.0262 57.1045 18.0262C57.3776 18.0262 57.6284 17.9964 57.8544 17.9343C58.0803 17.8722 58.2765 17.7903 58.4429 17.686C58.6092 17.5817 58.7384 17.4551 58.8327 17.3086C58.9271 17.1621 58.9718 17.0007 58.9718 16.8293C58.9718 16.4842 58.8476 16.2235 58.5993 16.0472C58.351 15.8709 57.9686 15.7542 57.4496 15.697L56.1981 15.5679C55.8455 15.5331 55.5426 15.4587 55.2868 15.3469C55.0311 15.2352 54.8225 15.0961 54.6611 14.9273C54.4997 14.7584 54.3805 14.5647 54.306 14.3437C54.2315 14.1252 54.1918 13.8893 54.1918 13.6361C54.1918 13.3207 54.2563 13.0302 54.3855 12.767C54.5146 12.5038 54.6983 12.2778 54.9367 12.0866C55.1751 11.8954 55.4631 11.7489 55.8058 11.6446C56.146 11.5403 56.5309 11.4882 56.9555 11.4882C57.3801 11.4882 57.7848 11.5478 58.1275 11.6669C58.4677 11.7861 58.7632 11.9376 59.0115 12.1213C59.2598 12.3051 59.4634 12.5112 59.6223 12.7421C59.7813 12.9731 59.898 13.1965 59.9774 13.4101H58.9196C58.7756 13.1071 58.5248 12.8638 58.1648 12.6776C57.8047 12.4913 57.3925 12.397 56.9232 12.397C56.362 12.397 55.93 12.5162 55.6221 12.7521C55.3166 12.9904 55.1627 13.271 55.1627 13.5938C55.1627 13.9166 55.2769 14.1774 55.5078 14.3537C55.7388 14.53 56.064 14.6392 56.4887 14.6839L57.837 14.823C58.4975 14.895 59.014 15.1061 59.3865 15.4537C59.7564 15.8038 59.9427 16.2433 59.9427 16.7747C59.9427 17.0404 59.8831 17.3036 59.7639 17.5619C59.6447 17.8201 59.4684 18.051 59.23 18.2522C58.9916 18.4533 58.6961 18.6172 58.3411 18.7438C57.986 18.8705 57.5738 18.9325 57.1045 18.9325C56.6352 18.9325 56.2155 18.8779 55.8629 18.7662C55.5103 18.6544 55.2099 18.5079 54.9615 18.3242C54.7132 18.1404 54.5096 17.9343 54.3507 17.7034C54.1918 17.4725 54.0726 17.244 53.9956 17.0131H55.0534L55.0559 17.0106Z" fill="black"/>
  <path d="M57.1045 19C56.6252 19 56.2006 18.9429 55.8431 18.8287C55.4855 18.7145 55.1751 18.563 54.9218 18.3767C54.6686 18.1905 54.4575 17.9745 54.2961 17.7411C54.1347 17.5077 54.013 17.2693 53.9311 17.0334L53.8988 16.9415H55.0932L55.113 16.9788C55.2719 17.2743 55.5277 17.5126 55.8754 17.6889C56.228 17.8677 56.6401 17.9571 57.102 17.9571C57.3677 17.9571 57.616 17.9273 57.8345 17.8677C58.053 17.8081 58.2442 17.7287 58.4031 17.6268C58.5596 17.5275 58.6838 17.4083 58.7707 17.2718C58.8576 17.1352 58.8998 16.9862 58.8998 16.8273C58.8998 16.502 58.788 16.2661 58.5571 16.1022C58.3212 15.9334 57.9438 15.8191 57.4397 15.7645L56.1882 15.6354C55.8307 15.5981 55.5153 15.5237 55.2571 15.4094C54.9938 15.2952 54.7778 15.1487 54.609 14.9724C54.4401 14.7961 54.316 14.5925 54.2365 14.364C54.1595 14.1381 54.1198 13.8923 54.1198 13.634C54.1198 13.3087 54.1868 13.0058 54.3209 12.7351C54.455 12.4645 54.6462 12.2286 54.8896 12.0324C55.1329 11.8362 55.4334 11.6848 55.781 11.578C56.1286 11.4712 56.521 11.4191 56.9505 11.4191C57.3801 11.4191 57.7973 11.4811 58.1449 11.6003C58.4926 11.722 58.7955 11.876 59.0488 12.0622C59.3021 12.2484 59.5131 12.462 59.6745 12.6979C59.8359 12.9313 59.9576 13.1622 60.0395 13.3832L60.0743 13.4751H58.8749L58.8551 13.4354C58.7185 13.1473 58.4752 12.9114 58.13 12.7326C57.7824 12.5514 57.3751 12.4595 56.9207 12.4595C56.3769 12.4595 55.9548 12.5737 55.6618 12.8022C55.3713 13.0281 55.2297 13.2864 55.2297 13.5893C55.2297 13.8922 55.334 14.1306 55.5476 14.2945C55.7661 14.4609 56.0864 14.5677 56.4961 14.6099L57.8444 14.7489C58.5174 14.8234 59.0537 15.0419 59.4336 15.3995C59.816 15.7595 60.0097 16.2214 60.0097 16.7702C60.0097 17.0458 59.9477 17.3214 59.826 17.5871C59.7043 17.8553 59.5181 18.0962 59.2747 18.3023C59.0314 18.5084 58.726 18.6772 58.3634 18.8063C58.0009 18.9355 57.5788 19 57.1045 19ZM54.0949 17.0781C54.1694 17.2718 54.2762 17.4679 54.4103 17.6616C54.5618 17.8851 54.7629 18.0887 55.0038 18.265C55.2446 18.4438 55.5401 18.5878 55.8853 18.6971C56.2304 18.8063 56.6401 18.861 57.1045 18.861C57.5688 18.861 57.9711 18.7989 58.3162 18.6772C58.6614 18.5555 58.9544 18.3941 59.1853 18.198C59.4138 18.0043 59.5876 17.7808 59.7018 17.53C59.8161 17.2817 59.8732 17.0259 59.8732 16.7702C59.8732 16.2611 59.6944 15.8316 59.3393 15.4988C58.9817 15.1611 58.4727 14.955 57.8296 14.8855L56.4812 14.7464C56.0467 14.7017 55.704 14.5875 55.4631 14.4038C55.2173 14.215 55.0907 13.9394 55.0907 13.5893C55.0907 13.2392 55.2546 12.9437 55.5749 12.6929C55.8927 12.4471 56.3422 12.3229 56.9182 12.3229C57.395 12.3229 57.8221 12.4198 58.1896 12.611C58.5447 12.7972 58.803 13.0405 58.9569 13.336H59.8707C59.7962 13.1548 59.6894 12.966 59.5578 12.7748C59.4038 12.5514 59.2052 12.3478 58.9643 12.1715C58.7235 11.9927 58.4329 11.8437 58.0977 11.727C57.765 11.6103 57.3776 11.5532 56.9505 11.5532C56.5234 11.5532 56.156 11.6053 55.8207 11.7071C55.488 11.8089 55.2049 11.9529 54.974 12.1367C54.7455 12.3204 54.5667 12.5414 54.4426 12.7922C54.3184 13.0455 54.2564 13.3261 54.2564 13.6315C54.2564 13.8749 54.2936 14.1058 54.3656 14.3169C54.4376 14.5254 54.5519 14.7142 54.7058 14.8756C54.8598 15.037 55.0634 15.1735 55.3092 15.2803C55.5575 15.3896 55.8555 15.4616 56.2006 15.4963L57.4521 15.6255C57.981 15.6851 58.3783 15.8067 58.6341 15.988C58.8998 16.1767 59.0363 16.4598 59.0363 16.8273C59.0363 17.011 58.9842 17.1849 58.8849 17.3438C58.7856 17.5002 58.649 17.6343 58.4752 17.7436C58.3038 17.8503 58.1002 17.9372 57.8693 17.9993C57.6384 18.0614 57.3801 18.0937 57.102 18.0937C56.6178 18.0937 56.1857 17.9993 55.8133 17.8106C55.4532 17.6293 55.1826 17.3835 55.0112 17.0781H54.0925H54.0949Z" fill="black"/>
</svg>