<svg xmlns="http://www.w3.org/2000/svg" width="211" height="19" viewBox="0 0 211 19" fill="none">
  <path d="M173.006 7.58574H171.908V1.56248H169.681V0.552124H175.243V1.56248H173.006V7.58574Z" fill="black"/>
  <path d="M182.452 7.58574H181.14L179.462 5.06957H177.783V7.58574H176.686V0.552124H179.707C180.538 0.552124 181.162 0.756139 181.572 1.16417C181.985 1.57219 182.192 2.12109 182.192 2.81085C182.192 3.35489 182.058 3.81878 181.793 4.19766C181.529 4.57897 181.13 4.83641 180.598 4.97242V4.99428L182.449 7.58574H182.452ZM177.783 4.05679H179.719C180.63 4.05679 181.087 3.64148 181.087 2.80842C181.087 1.97537 180.63 1.56005 179.719 1.56005H177.783V4.05436V4.05679Z" fill="black"/>
  <path d="M189.808 7.58562H188.71V5.35847H184.752V7.58562H183.688V3.44462C183.688 2.5047 183.953 1.76394 184.48 1.22233C185.007 0.680725 185.757 0.411133 186.733 0.411133C187.71 0.411133 188.475 0.680725 189.009 1.22233C189.543 1.76394 189.811 2.5047 189.811 3.44462V7.58562H189.808ZM188.71 4.34811V3.44462C188.71 2.79858 188.543 2.30069 188.205 1.94852C187.868 1.59636 187.377 1.42149 186.731 1.42149C186.085 1.42149 185.594 1.59636 185.257 1.94852C184.919 2.30069 184.752 2.79858 184.752 3.44462V4.34811H188.71Z" fill="black"/>
  <path d="M194.658 7.58574H193.454L190.787 0.552124H191.982L194.054 6.28637L194.073 6.28151L196.157 0.552124H197.318L194.661 7.58574H194.658Z" fill="black"/>
  <path d="M203.254 4.51096H199.8V6.57539H203.875V7.58574H198.702V0.552124H203.875V1.56248H199.8V3.49818H203.254V4.50854V4.51096Z" fill="black"/>
  <path d="M210.567 7.58574H205.522V0.552124H206.62V6.57539H210.567V7.58574Z" fill="black"/>
  <path d="M177.031 13.7595H175.816C175.607 13.3369 175.304 13.0066 174.903 12.771C174.502 12.5354 174.036 12.4164 173.504 12.4164C172.729 12.4164 172.098 12.6665 171.605 13.1644C171.114 13.6623 170.869 14.2962 170.869 15.0637C170.869 15.8312 171.114 16.4626 171.605 16.963C172.095 17.4609 172.729 17.711 173.504 17.711C174.15 17.711 174.697 17.5507 175.143 17.2326C175.59 16.9144 175.894 16.4748 176.052 15.9162V15.8943H173.072V14.884H177.235V15.4207C177.154 16.3898 176.771 17.1816 176.079 17.7984C175.386 18.4153 174.529 18.7238 173.502 18.7238C172.411 18.7238 171.515 18.3789 170.813 17.6916C170.111 17.0043 169.759 16.1275 169.759 15.0661C169.759 14.0048 170.111 13.1304 170.813 12.4407C171.515 11.7533 172.411 11.4084 173.502 11.4084C174.347 11.4084 175.083 11.6222 175.707 12.0496C176.331 12.4771 176.771 13.0478 177.031 13.7643V13.7595Z" fill="black"/>
  <path d="M184.45 18.5778H183.139L181.461 16.0616H179.782V18.5778H178.685V11.5442H181.706C182.537 11.5442 183.161 11.7482 183.571 12.1562C183.984 12.5643 184.191 13.1132 184.191 13.8029C184.191 14.347 184.057 14.8108 183.792 15.1897C183.527 15.571 183.129 15.8285 182.597 15.9645V15.9863L184.448 18.5778H184.45ZM179.782 15.0489H181.718C182.629 15.0489 183.085 14.6335 183.085 13.8005C183.085 12.9674 182.629 12.5521 181.718 12.5521H179.782V15.0464V15.0489Z" fill="black"/>
  <path d="M191.894 12.4359C192.596 13.1232 192.948 14 192.948 15.0614C192.948 16.1227 192.596 16.9971 191.894 17.6868C191.193 18.3742 190.296 18.719 189.206 18.719C188.115 18.719 187.219 18.3742 186.517 17.6868C185.815 16.9995 185.463 16.1227 185.463 15.0614C185.463 14 185.815 13.1257 186.517 12.4359C187.219 11.7486 188.115 11.4037 189.206 11.4037C190.296 11.4037 191.193 11.7486 191.894 12.4359ZM187.307 16.9582C187.797 17.4561 188.431 17.7063 189.206 17.7063C189.981 17.7063 190.612 17.4561 191.105 16.9582C191.596 16.4603 191.841 15.8264 191.841 15.0589C191.841 14.2915 191.596 13.66 191.105 13.1597C190.614 12.6618 189.981 12.4116 189.206 12.4116C188.431 12.4116 187.8 12.6618 187.307 13.1597C186.816 13.6575 186.571 14.2915 186.571 15.0589C186.571 15.8264 186.816 16.4579 187.307 16.9582Z" fill="black"/>
  <path d="M199.144 15.8022V11.5422H200.208V15.8022C200.208 16.7057 199.951 17.4173 199.438 17.9371C198.926 18.4568 198.202 18.7167 197.272 18.7167C196.342 18.7167 195.603 18.4568 195.083 17.9371C194.564 17.4173 194.304 16.7057 194.304 15.8022V11.5422H195.402V15.8022C195.402 16.4046 195.562 16.8733 195.88 17.206C196.198 17.5388 196.665 17.7064 197.274 17.7064C197.884 17.7064 198.348 17.5388 198.666 17.206C198.984 16.8733 199.144 16.4046 199.144 15.8022Z" fill="black"/>
  <path d="M203.006 18.5778H201.908V11.5442H204.857C205.709 11.5442 206.35 11.7531 206.778 12.1732C207.205 12.5934 207.419 13.1544 207.419 13.8564C207.419 14.5583 207.205 15.1217 206.778 15.5443C206.35 15.9669 205.712 16.1782 204.857 16.1782H203.006V18.5778ZM203.006 15.1679H204.876C205.831 15.1679 206.307 14.7307 206.307 13.8564C206.307 12.982 205.831 12.5545 204.876 12.5545H203.006V15.1679Z" fill="black"/>
  <path d="M18.847 10.9898H1.56171V7.86401H17.2975L18.847 9.42812V10.9898Z" fill="black"/>
  <path d="M36.9362 7.4588H33.8104C33.8104 5.11021 31.9014 3.20122 29.5528 3.20122C27.2043 3.20122 25.2953 5.11021 25.2953 7.4588H22.1695C22.1695 3.38824 25.4823 0.0754395 29.5528 0.0754395C33.6234 0.0754395 36.9362 3.38824 36.9362 7.4588Z" fill="black"/>
  <path d="M48.5771 7.4588H45.4513C45.4513 5.11021 43.5423 3.20122 41.1937 3.20122C38.8451 3.20122 36.9361 5.11021 36.9361 7.4588H33.8104C33.8104 3.38824 37.1232 0.0754395 41.1937 0.0754395C45.2643 0.0754395 48.5771 3.38824 48.5771 7.4588Z" fill="black"/>
  <path d="M25.2928 7.3302H22.1671V18.3664H25.2928V7.3302Z" fill="black"/>
  <path d="M36.9361 7.3302H33.8104V18.3664H36.9361V7.3302Z" fill="black"/>
  <path d="M48.5771 7.3302H45.4513V18.3664H48.5771V7.3302Z" fill="black"/>
  <path d="M89.3118 7.38335H86.186C86.186 5.03477 84.2771 3.12579 81.9285 3.12579C79.5799 3.12579 77.6709 5.03477 77.6709 7.38335H74.5451C74.5451 3.31279 77.8579 0 81.9285 0C85.999 0 89.3118 3.31279 89.3118 7.38335Z" fill="black"/>
  <path d="M77.6709 7.33008H74.5451V18.3663H77.6709V7.33008Z" fill="black"/>
  <path d="M138.465 8.40491H135.339C135.339 5.49528 132.971 3.12969 130.064 3.12969C127.156 3.12969 124.788 5.49771 124.788 8.40491H121.663C121.663 3.77088 125.432 0.00390625 130.064 0.00390625C134.695 0.00390625 138.465 3.77331 138.465 8.40491Z" fill="black"/>
  <path d="M124.786 8.40979H121.66V18.3652H124.786V8.40979Z" fill="black"/>
  <path d="M138.465 8.40527H135.339V18.3631H138.465V8.40527Z" fill="black"/>
  <path d="M117.33 0.490479H114.204V18.3635H117.33V0.490479Z" fill="black"/>
  <path d="M108.902 10.9904H101.067V7.86462H110.493V9.42873L108.902 10.9904Z" fill="black"/>
  <path d="M107.367 9.42861C107.367 12.9041 104.54 15.7287 101.067 15.7287C97.5938 15.7287 94.7668 12.9017 94.7668 9.42861C94.7668 5.95552 97.5938 3.12847 101.067 3.12847C102.561 3.12847 103.96 3.64336 105.069 4.55899H109.14C107.44 1.74895 104.351 0.00268555 101.069 0.00268555C95.8719 0.00268555 91.6434 4.23111 91.6434 9.42861C91.6434 14.6261 95.8719 18.8545 101.069 18.8545C106.267 18.8545 110.495 14.6261 110.495 9.42861H107.369H107.367Z" fill="black"/>
  <path d="M70.8 10.9904H53.5123V7.86462H69.0465L70.8 9.42873V10.9904Z" fill="black"/>
  <path d="M61.3765 15.7287C57.901 15.7287 55.0764 12.9017 55.0764 9.42861C55.0764 5.95552 57.9035 3.12847 61.3765 3.12847C64.8496 3.12847 67.6767 5.95552 67.6767 9.42861H70.8025C70.8025 4.23111 66.574 0.00268555 61.3765 0.00268555C56.1791 0.00268555 51.9506 4.23111 51.9506 9.42861C51.9506 14.6261 56.1791 18.8545 61.3765 18.8545C64.7112 18.8545 67.7325 17.1471 69.4545 14.2885H65.3912C64.2813 15.209 62.8775 15.7287 61.3765 15.7287Z" fill="black"/>
  <path d="M9.42592 15.7287C5.9504 15.7287 3.12578 12.9017 3.12578 9.42861C3.12578 5.95552 5.95283 3.12847 9.42592 3.12847C12.899 3.12847 15.7261 5.95552 15.7261 9.42861H18.8518C18.8518 4.23111 14.6234 0.00268555 9.42592 0.00268555C4.22843 0.00268555 0 4.23111 0 9.42861C0 14.6261 4.22843 18.8545 9.42592 18.8545C12.7606 18.8545 15.7819 17.1471 17.5039 14.2885H13.4406C12.3307 15.209 10.9269 15.7287 9.42592 15.7287Z" fill="black"/>
  <path d="M158.929 10.9904H150.8V7.86462H160.226V9.42873L158.929 10.9904Z" fill="black"/>
  <path d="M157.1 9.42861C157.1 12.9041 154.273 15.7287 150.8 15.7287C147.327 15.7287 144.5 12.9017 144.5 9.42861C144.5 5.95552 147.327 3.12847 150.8 3.12847C152.294 3.12847 153.693 3.64336 154.803 4.55899H158.873C157.173 1.74895 154.084 0.00268555 150.803 0.00268555C145.605 0.00268555 141.377 4.23111 141.377 9.42861C141.377 14.6261 145.605 18.8545 150.803 18.8545C156 18.8545 160.229 14.6261 160.229 9.42861H157.103H157.1Z" fill="black"/>
</svg>