<svg width="588" height="261" viewBox="0 0 588 261" fill="none" xmlns="http://www.w3.org/2000/svg">
<path d="M581.62 20.8999L564.21 247.51L38.31 252.12L4.98001 25.6899L581.62 20.8999Z" fill="white"/>
<path d="M553.88 1.08993C556.97 1.62993 561.55 3.31995 566.61 5.41995C569.14 6.46995 571.79 7.61994 574.44 8.77994C577.64 10.1799 580.84 11.5799 583.87 12.9099C584.92 13.3699 585.96 13.8199 587.02 14.2799C585.6 33.3099 584.18 52.4499 582.76 71.5199C581.42 89.5799 580.13 107.57 579.06 125.35C577.47 151.8 575.77 178.34 574.01 204.92C573.11 218.21 572.21 231.51 571.31 244.81L570.77 252.36C570.69 253.97 570.18 255.33 569.55 256.35C569.21 256.86 568.96 257.27 568.41 257.78C567.86 258.27 567.47 258.5 566.9 258.79C565.84 259.36 564.41 259.74 562.8 259.7L558.03 259.72L552.77 259.76L532.76 259.89C479.4 260.22 426.06 260.33 373.14 260.35C317.91 260.35 262.67 260.37 207.41 260.37C151.29 260.31 95.15 260.25 38.99 260.19C35.7 257.41 32.4 254.63 29.1 251.85C25.3 226.18 21.5 200.49 17.7 174.8C15.84 162.18 14.09 150.34 12.49 139.46C7.89998 107.98 4.16999 77.5699 1.84999 49.7499C-0.730007 18.7199 1.18998 15.9999 7.55998 44.7999C18.39 93.7299 28.33 144.77 36.15 205.52C37.04 212.6 37.91 219.61 38.78 226.57C39.2 230.05 39.62 233.52 40.03 236.98C40.23 238.71 40.44 240.44 40.64 242.16L40.93 244.63V245.2L41.2 245.51L41.27 245.59C41.27 245.59 41.28 245.61 41.44 245.76L42.16 246.41L42.88 247.06L43.06 247.22L43.1 247.27L43.18 247.36L43.51 247.73L43.97 247.8L44.09 247.82C44.09 247.82 44.13 247.83 44.33 247.84L45.26 247.87L48.99 248C51.48 248.09 53.96 248.18 56.44 248.27C61.4 248.46 66.35 248.65 71.29 248.83C81.18 249.21 91.05 249.59 100.95 249.98C148.81 250.12 196.69 249.98 244.29 249.67C330.06 249.12 415.75 248.96 501.42 248.91H533.55L549.61 248.89H557.53H559.2C559.48 248.89 559.76 248.89 560.03 248.89C560.17 248.86 560.26 248.72 560.26 248.58L560.29 248.16L565.03 186.97C568.32 144.27 571.61 101.56 574.91 58.8499C575.47 51.4899 576.09 44.1499 576.79 37.0599C577.14 33.5099 577.5 30.0299 577.89 26.6299C578.09 24.9699 578.28 23.3299 578.48 21.7199C578.63 20.8299 578.79 19.9599 578.93 19.0999C578.44 18.8099 577.96 18.5299 577.48 18.2499C577.22 18.0999 576.97 17.9499 576.72 17.7999L576.52 17.6799L576.18 17.4999L575.5 17.14C573.69 16.18 571.95 15.2299 570.27 14.2899C566.92 12.4199 563.84 10.5899 561.09 8.82992C554.71 4.73992 547.11 -0.110077 553.86 1.07992L553.88 1.08993Z" fill="black"/>
<path d="M19.61 27.5001C20.27 28.7001 21.71 28.4601 22.88 28.5101C26.83 28.6901 30.84 28.5101 34.74 28.9901C46.13 30.4001 57.68 30.6701 69.05 30.6501C89.55 30.6201 110.08 30.5501 130.63 29.4801C152.74 28.3301 175.02 28.9201 197.21 27.9601C208.38 27.4701 219.57 27.0101 230.74 27.0501C249.16 27.1101 267.57 26.6201 285.98 26.5201C301.02 26.4401 316.07 27.3901 331.11 27.8701C343.8 28.2701 356.59 27.9501 369.34 28.0001C372.41 28.0101 375.49 28.2301 378.55 28.1001C389.86 27.6201 401.17 26.9401 412.49 26.5001C425.72 25.9901 438.82 28.3001 451.12 27.9801C462.65 28.5801 473.18 27.7501 483.75 27.1901C502.86 26.1901 522.01 25.6601 541.14 24.9201C544.56 24.7901 547.84 24.1001 550.83 22.5901C554.16 20.9101 554.41 19.0601 551.24 17.4401C545.86 14.7001 540.27 12.9301 533.7 14.0101C525.74 15.3201 518.54 18.9201 510.25 19.3401C506.47 19.5301 502.82 18.0901 499.36 18.8401C491.71 20.5101 483.73 19.0301 476.17 21.1201C475.48 21.3101 474.65 21.1901 473.9 21.1401C466.04 20.6501 458.33 19.1401 450.25 20.5901C445.64 21.4201 440.56 21.0401 435.66 20.8201C428.15 20.4801 420.69 18.6601 413.19 19.4601C405.49 20.2801 397.84 19.6401 390.17 19.7201C388.95 19.7301 387.72 19.8701 386.5 19.9501C379.64 20.4501 372.78 20.4501 365.9 20.1901C358.37 19.9101 350.8 19.4201 343.31 19.9001C329.85 20.7501 316.48 21.0401 303.01 19.7501C292.53 18.7501 281.85 18.3601 271.39 18.6601C261.66 18.9401 252.04 18.7601 242.34 18.5001C220.87 17.9201 199.38 16.9101 177.89 18.0001C175.16 18.1401 172.45 18.4701 169.72 18.2501C154.4 17.0301 139.13 19.4001 123.83 18.8901C123.69 18.8901 123.54 18.9801 123.39 19.0201C110.09 22.3001 96.35 22.5401 82.84 21.9501C64.41 21.1501 46.02 21.5901 27.62 21.5301C24.98 21.5301 22.36 22.0501 20.63 24.0901C19.83 25.0401 18.88 26.1501 19.6 27.4601L19.61 27.5001Z" fill="black"/>
</svg>
